<?xml version="1.0" encoding="utf-8"?>
<!-- Generator: Adobe Illustrator 24.3.0, SVG Export Plug-In . SVG Version: 6.00 Build 0)  -->
<svg version="1.1" xmlns="http://www.w3.org/2000/svg" xmlns:xlink="http://www.w3.org/1999/xlink" x="0px" y="0px"
	 viewBox="0 0 512 500" style="enable-background:new 0 0 512 500;" xml:space="preserve">
<g id="Layer_2">
</g>
<g id="blobSvg">
	<g>
		<defs>
			<path id="blob" d="M448.5,316.5c-6.3,44.3-30.8,72.8-73.5,85.5s-85.5,28.5-128.5,47.5s-78.7,9.8-107-27.5s-49.3-75.3-63-114
				S65.7,232.8,85,198.5S125,125,147,81s58.3-65.8,109-65.5s95.8,16,135.5,47s60.7,70,63,117S454.8,272.2,448.5,316.5z"/>
		</defs>
		<clipPath id="blob_1_">
			<use xlink:href="#blob"  style="overflow:visible;"/>
		</clipPath>
		<g transform="matrix(1 0 0 1 0 0)" style="clip-path:url(#blob_1_);">
			
				<image style="overflow:visible;" width="4096" height="2298" xlink:href="puskesmasKentara.jpg"  transform="matrix(0.2191 0 0 0.2191 -179.0612 16.7003)">
			</image>
		</g>
	</g>
</g>
</svg>
