<svg xmlns="http://www.w3.org/2000/svg" xmlns:xlink="http://www.w3.org/1999/xlink" viewBox="0 0 374.15 512.09"><defs><style>.cls-1{fill:none;}.cls-2{clip-path:url(#clip-path);}.cls-3{fill:url(#linear-gradient);}.cls-4{fill:url(#linear-gradient-2);}.cls-5{fill:url(#linear-gradient-3);}.cls-10,.cls-11,.cls-12,.cls-13,.cls-6,.cls-8,.cls-9{opacity:0.5;}.cls-10,.cls-11,.cls-12,.cls-13,.cls-14,.cls-6,.cls-8,.cls-9{isolation:isolate;}.cls-6{fill:url(#linear-gradient-4);}.cls-7{fill:url(#linear-gradient-5);}.cls-8{fill:url(#linear-gradient-6);}.cls-9{fill:url(#linear-gradient-7);}.cls-10{fill:url(#linear-gradient-8);}.cls-11{fill:url(#linear-gradient-9);}.cls-12{fill:url(#linear-gradient-10);}.cls-13{fill:url(#linear-gradient-11);}.cls-14{fill:#89c185;fill-opacity:0.4;opacity:0.1;}</style><clipPath id="clip-path" transform="translate(-68.92)"><rect class="cls-1" x="68.92" width="374.15" height="512"/></clipPath><linearGradient id="linear-gradient" x1="622.57" y1="-330.01" x2="78.24" y2="378.7" gradientTransform="matrix(1, 0, 0, -1, -41.64, 349.06)" gradientUnits="userSpaceOnUse"><stop offset="0.31" stop-color="#89c185"/><stop offset="1" stop-color="#bedfb5"/></linearGradient><linearGradient id="linear-gradient-2" x1="148.96" y1="305.47" x2="414.74" y2="-77.11" gradientTransform="matrix(1, 0, 0, -1, -41.64, 349.06)" gradientUnits="userSpaceOnUse"><stop offset="0.31" stop-color="#f8f8f8"/><stop offset="1" stop-color="#fff"/></linearGradient><linearGradient id="linear-gradient-3" x1="172.38" y1="302.71" x2="253.22" y2="170.66" gradientTransform="matrix(1, 0, 0, -1, -41.64, 349.06)" gradientUnits="userSpaceOnUse"><stop offset="0" stop-color="#e5efe7"/><stop offset="0.37" stop-color="#bedfb5"/><stop offset="1" stop-color="#89c185"/></linearGradient><linearGradient id="linear-gradient-4" x1="165.96" y1="143.17" x2="429.32" y2="143.17" gradientTransform="matrix(1, 0, 0, -1, -41.64, 349.06)" gradientUnits="userSpaceOnUse"><stop offset="0" stop-color="#bedfb5"/><stop offset="1" stop-color="#89c185"/></linearGradient><linearGradient id="linear-gradient-5" x1="295.55" y1="265.07" x2="429.32" y2="265.07" xlink:href="#linear-gradient-4"/><linearGradient id="linear-gradient-6" x1="295.55" y1="223.76" x2="391.54" y2="223.76" xlink:href="#linear-gradient-4"/><linearGradient id="linear-gradient-7" x1="165.96" y1="96.71" x2="429.32" y2="96.71" xlink:href="#linear-gradient-4"/><linearGradient id="linear-gradient-8" x1="165.96" y1="50.25" x2="429.32" y2="50.25" xlink:href="#linear-gradient-4"/><linearGradient id="linear-gradient-9" x1="165.96" y1="3.71" x2="429.32" y2="3.71" xlink:href="#linear-gradient-4"/><linearGradient id="linear-gradient-10" x1="165.96" y1="-42.75" x2="429.32" y2="-42.75" xlink:href="#linear-gradient-4"/><linearGradient id="linear-gradient-11" x1="165.96" y1="-89.21" x2="429.32" y2="-89.21" xlink:href="#linear-gradient-4"/></defs><g id="Layer_5" data-name="Layer 5"><g class="cls-2"><path class="cls-3" d="M443.08,23.23V488.85a23.22,23.22,0,0,1-23.23,23.24H92.15a23.33,23.33,0,0,1-23.23-23.24V23.23A23.21,23.21,0,0,1,92.15,0H419.93A23.19,23.19,0,0,1,443.08,23.23Z" transform="translate(-68.92)"/><path class="cls-4" d="M419.24,42.83V469.17c0,11.77-9.12,21.27-20.41,21.27H110.89c-11.29-.08-20.41-9.58-20.41-21.27V42.83c0-11.77,9.12-21.27,20.41-21.27h288C410.12,21.56,419.24,31.06,419.24,42.83Z" transform="translate(-68.92)"/><path class="cls-5" d="M213.75,98.37v21.18a2.69,2.69,0,0,1-2.72,2.73H185.08a2.69,2.69,0,0,0-2.73,2.72V151a2.69,2.69,0,0,1-2.72,2.73H158.44a2.69,2.69,0,0,1-2.72-2.73V125a2.69,2.69,0,0,0-2.72-2.72H127.13a2.7,2.7,0,0,1-2.73-2.73V98.37a2.7,2.7,0,0,1,2.73-2.73h26a2.69,2.69,0,0,0,2.72-2.72V67a2.7,2.7,0,0,1,2.73-2.73h21.18A2.7,2.7,0,0,1,182.44,67v26a2.69,2.69,0,0,0,2.72,2.72H211A2.69,2.69,0,0,1,213.75,98.37Z" transform="translate(-68.92)"/><path class="cls-6" d="M384.62,213.84H127.38a3,3,0,0,1-3.06-3.07V201a3.06,3.06,0,0,1,3.06-3.07H384.62a3.06,3.06,0,0,1,3.06,3.07v9.78A3.1,3.1,0,0,1,384.62,213.84Z" transform="translate(-68.92)"/><path class="cls-7" d="M384.62,91.9H257a3,3,0,0,1-3.06-3.06v-9.7A3,3,0,0,1,257,76.07H384.62a3,3,0,0,1,3.06,3.07v9.78A3.08,3.08,0,0,1,384.62,91.9Z" transform="translate(-68.92)"/><path class="cls-8" d="M346.84,133.25H257a3,3,0,0,1-3.06-3.06v-9.78a3,3,0,0,1,3.06-3.07h89.86a3,3,0,0,1,3.06,3.07v9.78A3.11,3.11,0,0,1,346.84,133.25Z" transform="translate(-68.92)"/><path class="cls-9" d="M384.62,260.3H127.38a3,3,0,0,1-3.06-3.07v-9.78a3.06,3.06,0,0,1,3.06-3.07H384.62a3.06,3.06,0,0,1,3.06,3.07v9.78A3.1,3.1,0,0,1,384.62,260.3Z" transform="translate(-68.92)"/><path class="cls-10" d="M384.62,306.76H127.38a3,3,0,0,1-3.06-3.07v-9.78a3,3,0,0,1,3.06-3.06H384.62a3,3,0,0,1,3.06,3.06v9.87A3.08,3.08,0,0,1,384.62,306.76Z" transform="translate(-68.92)"/><path class="cls-11" d="M384.62,353.3H127.38a3,3,0,0,1-3.06-3.06v-9.79a3,3,0,0,1,3.06-3.06H384.62a3,3,0,0,1,3.06,3.06v9.79A3.1,3.1,0,0,1,384.62,353.3Z" transform="translate(-68.92)"/><path class="cls-12" d="M384.62,399.76H127.38a3,3,0,0,1-3.06-3.06v-9.79a3,3,0,0,1,3.06-3.06H384.62a3,3,0,0,1,3.06,3.06v9.79A3.1,3.1,0,0,1,384.62,399.76Z" transform="translate(-68.92)"/><path class="cls-13" d="M384.62,446.22H127.38a3,3,0,0,1-3.06-3.06v-9.78a3,3,0,0,1,3.06-3.07H384.62a3,3,0,0,1,3.06,3.07v9.78A3.1,3.1,0,0,1,384.62,446.22Z" transform="translate(-68.92)"/><path class="cls-14" d="M443.08,23.23V488.85a23.22,23.22,0,0,1-23.23,23.24H92.15a23.33,23.33,0,0,1-23.23-23.24v-8.08C268.81,398.23,361.9,81.69,382.91,0h36.94A23.21,23.21,0,0,1,443.08,23.23Z" transform="translate(-68.92)"/></g></g></svg>