<svg xmlns="http://www.w3.org/2000/svg" xmlns:xlink="http://www.w3.org/1999/xlink" viewBox="0 0 362.71 512.04"><defs><style>.cls-1{fill:none;}.cls-2{clip-path:url(#clip-path);}.cls-3{fill:url(#linear-gradient);}.cls-4{fill:#f8f8f8;}.cls-5{fill:url(#linear-gradient-2);}.cls-6{fill:url(#linear-gradient-3);}.cls-7,.cls-9{opacity:0.6;}.cls-7,.cls-8,.cls-9{isolation:isolate;}.cls-7{fill:url(#linear-gradient-4);}.cls-8{opacity:0.3;fill:url(#linear-gradient-5);}.cls-9{fill:url(#linear-gradient-6);}</style><clipPath id="clip-path" transform="translate(-74.67)"><rect class="cls-1" x="74.67" width="362.67" height="512"/></clipPath><linearGradient id="linear-gradient" x1="138.31" y1="106.7" x2="479.28" y2="77.46" gradientTransform="matrix(1, 0, 0, -1, -41.64, 349.06)" gradientUnits="userSpaceOnUse"><stop offset="0" stop-color="#bedfb5"/><stop offset="1" stop-color="#89c185"/></linearGradient><linearGradient id="linear-gradient-2" x1="217.38" y1="245.89" x2="377.93" y2="163.04" gradientTransform="matrix(1, 0, 0, -1, -41.64, 349.06)" gradientUnits="userSpaceOnUse"><stop offset="0" stop-color="#e5efe7"/><stop offset="0.09" stop-color="#e5efe7"/><stop offset="0.3" stop-color="#bedfb5"/><stop offset="0.52" stop-color="#bedfb5"/><stop offset="0.75" stop-color="#89c185"/><stop offset="1" stop-color="#89c185"/></linearGradient><linearGradient id="linear-gradient-3" x1="411.7" y1="83.59" x2="183.53" y2="83.59" xlink:href="#linear-gradient"/><linearGradient id="linear-gradient-4" x1="372.83" y1="27.89" x2="183.57" y2="27.89" xlink:href="#linear-gradient"/><linearGradient id="linear-gradient-5" x1="338.53" y1="-5.44" x2="183.53" y2="-5.44" xlink:href="#linear-gradient"/><linearGradient id="linear-gradient-6" x1="356.99" y1="-36.39" x2="183.57" y2="-36.39" xlink:href="#linear-gradient"/></defs><g id="Layer_2" data-name="Layer 2"><g class="cls-2"><path class="cls-3" d="M424.82,0H87.22A12.46,12.46,0,0,0,74.67,12.4V499.64A12.46,12.46,0,0,0,87.22,512h337.6a12.46,12.46,0,0,0,12.55-12.4V12.4A12.51,12.51,0,0,0,424.82,0Z" transform="translate(-74.67)"/><path class="cls-4" d="M402.66,22.08H109.34A12.18,12.18,0,0,0,97.12,34.19V437a12.14,12.14,0,0,0,12.22,12.07H402.66A12.14,12.14,0,0,0,414.88,437V34.19A12.14,12.14,0,0,0,402.66,22.08Z" transform="translate(-74.67)"/><path class="cls-5" d="M316,213.62H196.07a9.87,9.87,0,0,1-9.94-9.81V85.38a9.87,9.87,0,0,1,9.94-9.81H316a9.87,9.87,0,0,1,9.94,9.81V203.77A9.91,9.91,0,0,1,316,213.62Z" transform="translate(-74.67)"/><path class="cls-4" d="M256,498.78a18.23,18.23,0,1,0-18.46-18.22A18.34,18.34,0,0,0,256,498.78Z" transform="translate(-74.67)"/><path class="cls-6" d="M360.5,274.94h-209a9.48,9.48,0,1,1,0-19h209a9.48,9.48,0,1,1,0,19Z" transform="translate(-74.67)"/><path class="cls-7" d="M325.12,327.49H148a6,6,0,0,1-6.07-6v-.65a6,6,0,0,1,6.07-6H325.12a6,6,0,0,1,6.07,6v.65A6,6,0,0,1,325.12,327.49Z" transform="translate(-74.67)"/><path class="cls-8" d="M291.4,360.86h-144a5.52,5.52,0,0,1-5.53-5.46v-1.81a5.53,5.53,0,0,1,5.53-5.46H291.36a5.52,5.52,0,0,1,5.53,5.46v1.81A5.51,5.51,0,0,1,291.4,360.86Z" transform="translate(-74.67)"/><path class="cls-9" d="M309.53,391.77H147.76a5.8,5.8,0,0,1-5.82-5.75v-1.15a5.8,5.8,0,0,1,5.82-5.74H309.53a5.8,5.8,0,0,1,5.82,5.74V386A5.83,5.83,0,0,1,309.53,391.77Z" transform="translate(-74.67)"/><path class="cls-4" d="M256.38,140.78A21.75,21.75,0,1,0,234.64,119,21.74,21.74,0,0,0,256.38,140.78Zm0,10.87c-14.51,0-43.47,7.28-43.47,21.75v5.46a5.47,5.47,0,0,0,5.45,5.46h76.13a5.48,5.48,0,0,0,5.46-5.46V173.4C299.86,159,270.89,151.65,256.38,151.65Z" transform="translate(-74.67)"/></g></g></svg>