<svg xmlns="http://www.w3.org/2000/svg" xmlns:xlink="http://www.w3.org/1999/xlink" viewBox="0 0 505.05 449.15"><defs><style>.cls-1{fill:#f7f9fd;}.cls-2{fill:none;}.cls-3{clip-path:url(#clip-path);}.cls-4{fill:url(#linear-gradient);}.cls-5{fill:url(#linear-gradient-2);}.cls-6{fill:#f8f8f8;}.cls-7{mask:url(#mask);}.cls-8{fill:url(#linear-gradient-3);}.cls-9{fill:url(#linear-gradient-4);}.cls-10{fill:url(#linear-gradient-5);}</style><clipPath id="clip-path" transform="translate(-3.45 -31.43)"><rect class="cls-2" x="3.51" y="31.43" width="504.97" height="449.14"/></clipPath><linearGradient id="linear-gradient" x1="128.84" y1="48.92" x2="464.76" y2="48.92" gradientTransform="matrix(1, 0, 0, -1, -41.64, 349.06)" gradientUnits="userSpaceOnUse"><stop offset="0" stop-color="#e5efe7"/><stop offset="1" stop-color="#89c185"/></linearGradient><linearGradient id="linear-gradient-2" x1="45.09" y1="48.88" x2="128.84" y2="48.88" gradientTransform="matrix(1, 0, 0, -1, -41.64, 349.06)" gradientUnits="userSpaceOnUse"><stop offset="0" stop-color="#bedfb5"/><stop offset="1" stop-color="#89c185"/></linearGradient><mask id="mask" x="110.97" y="0" width="281.47" height="448.85" maskUnits="userSpaceOnUse"><g transform="translate(-3.45 -31.43)"><g id="mask0_33:0" data-name="mask0 33:0"><path class="cls-1" d="M364.45,119.81H395.9V480.28H114.42V119.92h33.42v-3.76c0-12.92.06-25.89-.06-38.8-.11-9,2.32-16.92,9.39-23a25.63,25.63,0,0,1,17.2-6.49c20.09-.06,40.13-.06,60.23-.06,33.76,0,67.59.06,101.35,0,8.86,0,16.22,2.9,22,9.61,4.64,5.39,6.37,11.7,6.37,18.77-.06,13.61,0,27.22,0,40.83A16.6,16.6,0,0,0,364.45,119.81Zm-180.35,0h51.48q44.84,0,89.72.06c2.37,0,2.89-.76,2.89-3-.11-10.14,0-20.28,0-30.41A18.3,18.3,0,0,0,328,84H184.1Z"/></g></g></mask><linearGradient id="linear-gradient-3" x1="177.71" y1="273.38" x2="411.86" y2="273.38" xlink:href="#linear-gradient-2"/><linearGradient id="linear-gradient-4" x1="464.7" y1="48.94" x2="550.14" y2="48.94" xlink:href="#linear-gradient-2"/><linearGradient id="linear-gradient-5" x1="217.86" y1="48.9" x2="377.24" y2="48.9" xlink:href="#linear-gradient-2"/></defs><g id="Layer_4" data-name="Layer 4"><g class="cls-3"><path class="cls-4" d="M423.12,119.87H87.2V480.4H423.12Z" transform="translate(-3.45 -31.43)"/><path class="cls-5" d="M85.81,119.87a5.43,5.43,0,0,1,1.39.34v360c-26,2-47.95-4.51-65.39-21.31C9.48,447,3.51,433,3.51,417.09V248.62c0-21.43-.06-42.86-.06-64.29,0-25.89,14-44.71,39.62-57.46C56.27,120.39,70.93,119.4,85.81,119.87Z" transform="translate(-3.45 -31.43)"/><path class="cls-6" d="M364.45,119.81H395.9V480.28H114.42V119.92h33.42v-3.76c0-12.92.06-25.89-.06-38.8-.11-9,2.32-16.92,9.39-23a25.63,25.63,0,0,1,17.2-6.49c20.09-.06,40.13-.06,60.23-.06,33.76,0,67.59.06,101.35,0,8.86,0,16.22,2.9,22,9.61,4.64,5.39,6.37,11.7,6.37,18.77-.06,13.61,0,27.22,0,40.83A16.6,16.6,0,0,0,364.45,119.81Zm-180.35,0h51.48q44.84,0,89.72.06c2.37,0,2.89-.76,2.89-3-.11-10.14,0-20.28,0-30.41A18.3,18.3,0,0,0,328,84H184.1Z" transform="translate(-3.45 -31.43)"/><g class="cls-7"><path class="cls-8" d="M370.23,31.43H136.07v88.5H370.23Z" transform="translate(-3.45 -31.43)"/></g><path class="cls-9" d="M508.49,183.4c0-23.86-13-41.64-36.2-54.56-14.25-7.93-30.41-9.44-47-9.09-2.55.06-2.2,1.39-2.2,2.78v125q0,109.9-.06,219.74v13c10.43.35,20.33.41,30.06-1.91,32.9-7.76,55.31-32.26,55.31-61.16Q508.61,300.42,508.49,183.4Z" transform="translate(-3.45 -31.43)"/><path class="cls-10" d="M282.61,326.75V372.5c0,4.81-2.43,7.35-7.18,7.35q-19.64.09-39.27,0c-4.34,0-6.77-2.72-6.77-7.29V326.75H184.15c-5.61,0-7.93-2.26-7.93-7.88V281.51c0-5.67,2.26-7.93,7.88-7.93h45.23V228.06c0-5.33,2.37-7.65,7.7-7.65h37.36c5.85,0,8.11,2.2,8.11,8.17.05,14.24,0,28.43,0,42.68v2.38H285q21.54,0,43.09.05c5.27,0,7.53,2.32,7.53,7.59v37.53c0,5.73-2.2,7.94-7.82,7.94q-21.46,0-42.86.05C284.35,326.75,283.65,326.75,282.61,326.75Z" transform="translate(-3.45 -31.43)"/></g></g></svg>