<svg xmlns="http://www.w3.org/2000/svg" xmlns:xlink="http://www.w3.org/1999/xlink" viewBox="0 0 360.94 511.25"><defs><style>.cls-1{fill:none;}.cls-2{clip-path:url(#clip-path);}.cls-3{fill:url(#linear-gradient);}.cls-4{fill:#f8f8f8;}.cls-5{fill:url(#linear-gradient-2);}.cls-6{fill:url(#linear-gradient-3);}.cls-7{fill:#e5efe7;}.cls-8{fill:url(#linear-gradient-4);}.cls-9{fill:url(#linear-gradient-5);}.cls-10{fill:url(#linear-gradient-6);}.cls-11{fill:url(#linear-gradient-7);}.cls-12,.cls-13,.cls-14{opacity:0.6;isolation:isolate;}.cls-12{fill:url(#linear-gradient-8);}.cls-13{fill:url(#linear-gradient-9);}.cls-14{fill:url(#linear-gradient-10);}</style><clipPath id="clip-path" transform="translate(-75.53 -0.39)"><rect class="cls-1" x="75.53" y="0.39" width="360.94" height="511.21"/></clipPath><linearGradient id="linear-gradient" x1="67.19" y1="161.66" x2="528.09" y2="11.91" gradientTransform="matrix(1, 0, 0, -1, -41.64, 349.06)" gradientUnits="userSpaceOnUse"><stop offset="0" stop-color="#e5efe7"/><stop offset="0.17" stop-color="#bddfbb"/><stop offset="0.41" stop-color="#b3daab"/><stop offset="0.67" stop-color="#89c185"/><stop offset="1" stop-color="#679663"/></linearGradient><linearGradient id="linear-gradient-2" x1="66.3" y1="416.44" x2="394.42" y2="258.42" gradientTransform="matrix(1, 0, 0, -1, -41.64, 349.06)" gradientUnits="userSpaceOnUse"><stop offset="0" stop-color="#e5efe7"/><stop offset="1" stop-color="#bedfb5"/></linearGradient><linearGradient id="linear-gradient-3" x1="192.66" y1="334.78" x2="402.08" y2="334.78" xlink:href="#linear-gradient-2"/><linearGradient id="linear-gradient-4" x1="193.24" y1="191.5" x2="245.87" y2="123.56" gradientTransform="matrix(1, 0, 0, -1, -41.64, 349.06)" gradientUnits="userSpaceOnUse"><stop offset="0" stop-color="#bedfb5"/><stop offset="1" stop-color="#89c185"/></linearGradient><linearGradient id="linear-gradient-5" x1="187.56" y1="187.1" x2="240.19" y2="119.15" gradientTransform="matrix(1, 0, 0, -1, -41.64, 349.06)" gradientUnits="userSpaceOnUse"><stop offset="0" stop-color="#e5efe7"/><stop offset="0.1" stop-color="#e5efe7"/><stop offset="0.3" stop-color="#bedfb5"/><stop offset="0.51" stop-color="#bedfb5"/><stop offset="0.73" stop-color="#89c185"/><stop offset="1" stop-color="#89c185"/></linearGradient><linearGradient id="linear-gradient-6" x1="272.92" y1="205.86" x2="389.5" y2="205.79" xlink:href="#linear-gradient-4"/><linearGradient id="linear-gradient-7" x1="272.92" y1="185.05" x2="349.35" y2="185.05" xlink:href="#linear-gradient-4"/><linearGradient id="linear-gradient-8" x1="272.96" y1="160.29" x2="427.16" y2="160.29" xlink:href="#linear-gradient-4"/><linearGradient id="linear-gradient-9" x1="171.6" y1="90.78" x2="424.12" y2="90.78" xlink:href="#linear-gradient-4"/><linearGradient id="linear-gradient-10" x1="272.96" y1="136.02" x2="427.16" y2="136.02" xlink:href="#linear-gradient-4"/></defs><g id="Layer_3" data-name="Layer 3"><g class="cls-2"><path class="cls-3" d="M436.47,487.11a24.16,24.16,0,0,1-24.14,24.18l-312.13.36a24.2,24.2,0,0,1-22.89-16.33A23.79,23.79,0,0,1,76,487.56L75.53,37.43A24.17,24.17,0,0,1,99.67,13.24l286.61-.31,25.52,0A24.16,24.16,0,0,1,436,37Z" transform="translate(-75.53 -0.39)"/><path class="cls-4" d="M404.13,484.52l-295.76.32a13,13,0,0,1-13-13L94.94,53a13,13,0,0,1,13-13l295.71-.31a13,13,0,0,1,13,13l.44,418.9A12.92,12.92,0,0,1,404.13,484.52Z" transform="translate(-75.53 -0.39)"/><path class="cls-5" d="M362.59,74.19l-215.72.27a13,13,0,0,1-13-12.94l0-36a13,13,0,0,1,12.94-13l215.76-.23a13,13,0,0,1,13,12.94l0,36A13,13,0,0,1,362.59,74.19Zm-215.81-55a6.36,6.36,0,0,0-6.34,6.33l.05,36a6.36,6.36,0,0,0,6.33,6.34l215.77-.22a6.36,6.36,0,0,0,6.33-6.34l0-36A6.36,6.36,0,0,0,362.54,19Z" transform="translate(-75.53 -0.39)"/><path class="cls-6" d="M356.48,27.92,155,28.15a4,4,0,0,1-4-4V4.63a4,4,0,0,1,4-4L356.43.39a4,4,0,0,1,4,4v19.5A3.93,3.93,0,0,1,356.48,27.92Z" transform="translate(-75.53 -0.39)"/><path class="cls-7" d="M155.21,28.15l201.09-.23a4.18,4.18,0,0,0,4.19-4.19V14.18L151,14.4V24A4.23,4.23,0,0,0,155.21,28.15Z" transform="translate(-75.53 -0.39)"/><path class="cls-7" d="M225.88,437.41l-17.4-105.3-14.09,45.83-40.34,0a4.42,4.42,0,0,1,0-8.83l33.87,0,23.24-75.44,17.4,105.56,22.58-72.5,12,34.35,27-65.54,26.27,104,9.91-33.06,29,0a4.42,4.42,0,1,1,0,8.83l-22.44.05-17.18,57.33-27.57-109-25.75,62.33-10.84-31Z" transform="translate(-75.53 -0.39)"/><path class="cls-8" d="M196,234.41l-56.71,0a16.66,16.66,0,0,1-16.64-16.6l-.09-79.28a16.66,16.66,0,0,1,16.6-16.64l56.71-.05a16.67,16.67,0,0,1,16.64,16.6l.09,79.28A16.7,16.7,0,0,1,196,234.41ZM139.11,126.75a11.8,11.8,0,0,0-11.78,11.82l.09,79.28a11.8,11.8,0,0,0,11.82,11.78l56.71,0a11.81,11.81,0,0,0,11.78-11.83l-.09-79.28a11.81,11.81,0,0,0-11.83-11.78Z" transform="translate(-75.53 -0.39)"/><path class="cls-9" d="M167.57,219.19c26.82,0,35.16-15.52,35.16-15.52a19.44,19.44,0,0,0-4.78-4.2c-7-4.59-12.71-6.56-15.08-8.52a15.26,15.26,0,0,1-3.74-4.73l-1.48.89a22.22,22.22,0,0,1-.4-7.76s2.1-.54,3.66-7.63c2.5.49,5.44-5.84,4.06-8.16-.89-1.52-2-1.39-2.72-1,.76-3.17,4.19-20.7-14.72-20.7s-15.49,17.53-14.68,20.7c-.76-.36-1.83-.49-2.72,1-1.39,2.32,1.6,8.65,4.1,8.16,1.56,7.09,3.7,7.59,3.7,7.59a21,21,0,0,1-.4,7.76l-1.47-.89a15.83,15.83,0,0,1-3.75,4.73c-2.41,2-8,4-15.08,8.56a18.68,18.68,0,0,0-4.77,4.2C132.41,203.75,140.8,219.24,167.57,219.19Z" transform="translate(-75.53 -0.39)"/><path class="cls-10" d="M344.16,147.18,235,147.32a3.7,3.7,0,0,1-3.71-3.71V143a3.7,3.7,0,0,1,3.71-3.71l109.17-.13a3.69,3.69,0,0,1,3.7,3.7v.63A3.72,3.72,0,0,1,344.16,147.18Z" transform="translate(-75.53 -0.39)"/><path class="cls-11" d="M304,168l-69,.09a3.69,3.69,0,0,1-3.71-3.7v-.63A3.69,3.69,0,0,1,235,160l69-.09a3.69,3.69,0,0,1,3.7,3.7v.63A3.69,3.69,0,0,1,304,168Z" transform="translate(-75.53 -0.39)"/><path class="cls-12" d="M381.82,192.69,235,192.87a3.69,3.69,0,0,1-3.7-3.71v-.62a3.69,3.69,0,0,1,3.7-3.7l146.79-.18a3.69,3.69,0,0,1,3.7,3.7V189A3.75,3.75,0,0,1,381.82,192.69Z" transform="translate(-75.53 -0.39)"/><path class="cls-13" d="M378.65,262.16l-244.85.26a3.83,3.83,0,0,1-3.84-3.83v-.36a3.84,3.84,0,0,1,3.84-3.84l244.85-.26a3.83,3.83,0,0,1,3.84,3.83v.36A3.84,3.84,0,0,1,378.65,262.16Z" transform="translate(-75.53 -0.39)"/><path class="cls-14" d="M381.82,217,235,217.14a3.69,3.69,0,0,1-3.7-3.7v-.63a3.69,3.69,0,0,1,3.7-3.7l146.79-.18a3.69,3.69,0,0,1,3.7,3.7v.63A3.69,3.69,0,0,1,381.82,217Z" transform="translate(-75.53 -0.39)"/></g></g></svg>