<svg id="Layer_1" data-name="Layer 1" xmlns="http://www.w3.org/2000/svg" xmlns:xlink="http://www.w3.org/1999/xlink" viewBox="0 0 503.45 492.68"><defs><style>.cls-1{fill:none;}.cls-2{clip-path:url(#clip-path);}.cls-3{fill-opacity:0.99;fill:url(#linear-gradient);}.cls-4,.cls-7{fill:#89c185;}.cls-4{fill-opacity:0.8;}.cls-5{fill:url(#linear-gradient-2);}.cls-6{fill:#fff;}.cls-7{fill-opacity:0.5;opacity:0.06;isolation:isolate;}.cls-8{fill:url(#linear-gradient-3);}</style><clipPath id="clip-path" transform="translate(-4.28 -9.69)"><rect class="cls-1" x="4.28" y="9.69" width="503.45" height="492.62"/></clipPath><linearGradient id="linear-gradient" x1="77.01" y1="-122.24" x2="341.1" y2="116.05" gradientTransform="matrix(1, 0, 0, -1, -41.64, 349.06)" gradientUnits="userSpaceOnUse"><stop offset="0" stop-color="#bedfb5"/><stop offset="1" stop-color="#89c185"/></linearGradient><linearGradient id="linear-gradient-2" x1="318.86" y1="327.43" x2="443.46" y2="49.41" xlink:href="#linear-gradient"/><linearGradient id="linear-gradient-3" x1="348.4" y1="183.83" x2="445.09" y2="137.03" gradientTransform="matrix(1, 0, 0, -1, -41.64, 349.06)" gradientUnits="userSpaceOnUse"><stop offset="0" stop-color="#e5efe7"/><stop offset="0.07" stop-color="#e5efe7"/><stop offset="0.29" stop-color="#e5efe7"/><stop offset="0.52" stop-color="#bedfb5"/><stop offset="0.75" stop-color="#bedfb5"/><stop offset="1" stop-color="#bedfb5"/></linearGradient></defs><g class="cls-2"><path class="cls-3" d="M312,246.78l-49.69,47.43L52.46,494.46A28.38,28.38,0,0,1,11.73,493a29,29,0,0,1,3.12-41.76L262.29,249.58l27.26-22.2Z" transform="translate(-4.28 -9.69)"/><path class="cls-4" d="M260.12,296.62l-48.91,46.64-4.51-47.93,26.77-21.81Z" transform="translate(-4.28 -9.69)"/><path class="cls-5" d="M507.72,173.39c0,90.43-72.78,163.76-162.47,163.76-56.53,0-106.33-29.1-135.43-73.27a163.85,163.85,0,0,1-27-90.49c0-90.43,72.78-163.7,162.47-163.7A161,161,0,0,1,451.19,49.27,163.93,163.93,0,0,1,507.72,173.39Z" transform="translate(-4.28 -9.69)"/><path class="cls-6" d="M345.25,300.93c69.91,0,126.59-57.1,126.59-127.54S415.16,45.85,345.25,45.85,218.66,103,218.66,173.39,275.34,300.93,345.25,300.93Z" transform="translate(-4.28 -9.69)"/><path class="cls-7" d="M507.72,173.39c0,90.43-72.78,163.76-162.47,163.76-56.53,0-106.33-29.1-135.43-73.27,183.23-15,231.52-171.44,241.43-214.61A164.09,164.09,0,0,1,507.72,173.39Z" transform="translate(-4.28 -9.69)"/><path class="cls-8" d="M345.25,173.67a26.8,26.8,0,1,0-26.6-26.8A26.7,26.7,0,0,0,345.25,173.67Zm0,13.4c-17.75,0-53.19,9-53.19,26.8v6.73a6.71,6.71,0,0,0,6.67,6.72h93.15a6.71,6.71,0,0,0,6.67-6.72v-6.73C398.44,196.1,363,187.07,345.25,187.07Z" transform="translate(-4.28 -9.69)"/></g></svg>