<svg id="Layer_1" data-name="Layer 1" xmlns="http://www.w3.org/2000/svg" xmlns:xlink="http://www.w3.org/1999/xlink" viewBox="0 0 372.6 512"><defs><style>.cls-1{fill:none;}.cls-2{clip-path:url(#clip-path);}.cls-3{fill:url(#linear-gradient);}.cls-4{fill:url(#linear-gradient-2);}.cls-5{fill:url(#linear-gradient-3);}.cls-6{fill:#f8f8f8;}.cls-7{fill:url(#linear-gradient-4);}.cls-8{fill:url(#linear-gradient-5);}.cls-9{opacity:0.5;fill:url(#linear-gradient-6);}.cls-10,.cls-9{isolation:isolate;}.cls-10{fill:#89c185;opacity:0.08;}</style><clipPath id="clip-path" transform="translate(-69.7)"><rect class="cls-1" x="69.7" width="372.6" height="512"/></clipPath><linearGradient id="linear-gradient" x1="122.6" y1="288.95" x2="466.78" y2="-186.07" gradientTransform="matrix(1, 0, 0, -1, -41.64, 349.06)" gradientUnits="userSpaceOnUse"><stop offset="0" stop-color="#bedfb5"/><stop offset="1" stop-color="#89c185"/></linearGradient><linearGradient id="linear-gradient-2" x1="-3683.07" y1="589.55" x2="-54.94" y2="336.85" gradientTransform="matrix(1, 0, 0, -1, -41.64, 349.06)" gradientUnits="userSpaceOnUse"><stop offset="0" stop-color="#e5efe7"/><stop offset="0.05" stop-color="#e5efe7"/><stop offset="0.29" stop-color="#bedfb5"/><stop offset="0.52" stop-color="#bedfb5"/><stop offset="0.76" stop-color="#89c185"/><stop offset="1" stop-color="#89c185"/></linearGradient><linearGradient id="linear-gradient-3" x1="148.28" y1="312.21" x2="449.4" y2="312.21" xlink:href="#linear-gradient-2"/><linearGradient id="linear-gradient-4" x1="243.72" y1="89.47" x2="187.21" y2="24.32" xlink:href="#linear-gradient"/><linearGradient id="linear-gradient-5" x1="426.88" y1="73.92" x2="285.34" y2="73.92" xlink:href="#linear-gradient"/><linearGradient id="linear-gradient-6" x1="295.38" y1="38.62" x2="425.64" y2="38.62" xlink:href="#linear-gradient"/></defs><g class="cls-2"><path class="cls-3" d="M442.3,159.51l-1.15,239.74-.2,46.37c-.19,36.85-35.21,66.57-78.31,66.38l-215.3-1c-43-.29-77.83-30.31-77.64-67.25l1.35-286.11c.09-29.82,23.18-55,54.74-63.4l.09-15.39V71l262.35,1.25-.09,23.28C419.6,104.29,442.4,129.59,442.3,159.51Z" transform="translate(-69.7)"/><path class="cls-4" d="M407.76,10.68V12.8l-.19,25-.19,24.53v3a8.46,8.46,0,0,1-8.47,8.37h-2l-12.7-.09-13.95-.1-12.7-.1-14-.09-12.89-.19L316.75,73l-12.7-.1-14-.09-12.8-.1-13.95-.1-12.7-.19-13.94-.09-12.7-.1-14-.1-12.8-.09L183.22,72l-12.7-.1-14-.09-12.79-.1-13.95-.09-12.8-.1h-2A8.46,8.46,0,0,1,106.64,63V60.8L107,11.35v-3A8.48,8.48,0,0,1,115.59,0h2l26.74.19L171.1.38l12.79.1,14,.1,12.7.09L237.19,1l13.95.1,12.7.09,14,.1,12.7.1,13.95.09,12.7.1,13.95.1,12.7.09,14.14.19,12.7.1,13.95.1,12.79.09h2A8.46,8.46,0,0,1,407.76,10.68Z" transform="translate(-69.7)"/><path class="cls-5" d="M407.76,12.89l-.19,24.92-.19,24.53-11.45-.1-15.2-.09-14-.1h-15.3l-14-.09-15.2-.1-13.95-.1H293.09l-13.95-.09-15.3-.1L250,61.47h-15.3l-13.95-.09-15.3-.1-13.95-.09h-15.2l-13.95-.1L147.05,61l-14-.09H117.9l-11.26-.1L107,11.35l26.74.1,29.15.19,14,.1,15.3.09h14l29.15.2,15.29.09h13.95l15.3.1,13.85.09,15.3.1h14l15.3.1,13.85.09,15.3.1h13.95l15.29.1Z" transform="translate(-69.7)"/><path class="cls-6" d="M442,210.13,70.76,208.37,70,373l371.25,1.75Z" transform="translate(-69.7)"/><path class="cls-6" d="M442.08,210.12,70.83,208.37,70.69,238l371.25,1.76Z" transform="translate(-69.7)"/><path class="cls-7" d="M215.55,274.55l-24-.09.1-24-33-.1-.1,24-24-.1-.19,32.9,24,.1-.1,24.05,33,.1.1-24,23.95.1Z" transform="translate(-69.7)"/><path class="cls-8" d="M378.32,282.54,259.61,282a5.78,5.78,0,0,1-5.77-5.77V273.5a5.79,5.79,0,0,1,5.77-5.78l118.71.58a5.79,5.79,0,0,1,5.78,5.77v2.7A5.79,5.79,0,0,1,378.32,282.54Z" transform="translate(-69.7)"/><path class="cls-9" d="M378.23,317.85l-118.72-.58a5.79,5.79,0,0,1-5.77-5.77v-2.7a5.79,5.79,0,0,1,5.77-5.77l118.72.58a5.79,5.79,0,0,1,5.77,5.77v2.69A5.79,5.79,0,0,1,378.23,317.85Z" transform="translate(-69.7)"/><path class="cls-10" d="M106.64,10.68V12.8l.2,25L107,62.24v3a8.46,8.46,0,0,0,8.46,8.37h2l12.8-.1,13.95-.1,12.7-.09,13.95-.1,12.7-.09,13.95-.1,12.69-.1,13.95-.09,12.8-.1,13.95-.1,12.7-.09,14-.1,12.7-.09,13.95-.1,12.79-.1L331,72.06l12.7-.1,13.95-.1,12.7-.09,14-.1,12.79-.09h2a8.46,8.46,0,0,0,8.37-8.47V60.9C258.65,67.34,115,2.21,115,2.21A8.52,8.52,0,0,0,106.64,10.68Z" transform="translate(-69.7)"/></g></svg>